{
  "source": "C:\\Users\\Peter\\Desktop\\stuff\\MIUN\\quantitative_research\\video_compression\\videos\\BVI-HD\\BVI-HD_CDVL_videos\\ORIG\\PaintingTilting_1920x1080_60fps.mp4",
  "output": "C:\\Users\\Peter\\Desktop\\stuff\\MIUN\\quantitative_research\\video_compression\\compressed_videos\\BVI-HD\\av1\\4\\PaintingTilting_1920x1080_60fps_av1.mkv",
  "codec": "av1",
  "ok": "Input #0, mov,mp4,m4a,3gp,3g2,mj2, from 'C:\\Users\\Peter\\Desktop\\stuff\\MIUN\\quantitative_research\\video_compression\\videos\\BVI-HD\\BVI-HD_CDVL_videos\\ORIG\\PaintingTilting_1920x1080_60fps.mp4':\n  Metadata:\n    major_brand     : isom\n    minor_version   : 512\n    compatible_brands: isomiso2avc1mp41\n    encoder         : Lavf54.28.101\n  Duration: 00:00:05.00, start: 0.000000, bitrate: 667707 kb/s\n  Stream #0:0[0x1](und): Video: h264 (High 4:4:4 Predictive) (avc1 / 0x31637661), yuv420p(progressive), 1920x1080, 667702 kb/s, 60 fps, 60 tbr, 60 tbn (default)\n    Metadata:\n      handler_name    : VideoHandler\n      vendor_id       : [0][0][0][0]\n[out#0/matroska @ 000001cb7b5a9000] Codec AVOption b:a (set bitrate (in bits/s)) has not been used for any stream. The most likely reason is either wrong type (e.g. a video option with no video streams) or that it is a private option of some decoder which was not actually used for any stream.\nStream mapping:\n  Stream #0:0 -> #0:0 (h264 (native) -> av1 (libsvtav1))\nPress [q] to stop, [?] for help\nSvt[info]: -------------------------------------------\nSvt[info]: SVT [version]:\tSVT-AV1 Encoder Lib v3.1.0-19-g6ecfe8ec\nSvt[info]: SVT [build]  :\tGCC 15.2.0\t 64 bit\nSvt[info]: LIB Build date: Aug 17 2025 11:37:13\nSvt[info]: -------------------------------------------\nSvt[info]: Level of Parallelism: 5\nSvt[info]: Number of PPCS 93\nSvt[info]: [asm level on system : up to avx2]\nSvt[info]: [asm level selected : up to avx2]\nSvt[info]: -------------------------------------------\nSvt[info]: SVT [config]: main profile\ttier (auto)\tlevel (auto)\nSvt[info]: SVT [config]: width / height / fps numerator / fps denominator \t\t: 1920 / 1080 / 60 / 1\nSvt[info]: SVT [config]: bit-depth / color format \t\t\t\t\t: 8 / YUV420\nSvt[info]: SVT [config]: preset / tune / pred struct \t\t\t\t\t: 4 / PSNR / random access\nSvt[info]: SVT [config]: gop size / mini-gop size / key-frame type \t\t\t: 321 / 16 / key frame\nSvt[info]: SVT [config]: BRC mode / target bitrate (kbps)\t\t\t\t: VBR / 4000 \nSvt[info]: SVT [config]: AQ mode / Variance Boost \t\t\t\t\t: 2 / 0\nSvt[info]: SVT [config]: sharpness / luminance-based QP bias \t\t\t\t: 0 / 0\nSvt[info]: SVT [config]: QP scale compress strength \t\t\t\t\t: 0\nSvt[info]: -------------------------------------------\nOutput #0, matroska, to 'C:\\Users\\Peter\\Desktop\\stuff\\MIUN\\quantitative_research\\video_compression\\compressed_videos\\BVI-HD\\av1\\4\\PaintingTilting_1920x1080_60fps_av1.mkv':\n  Metadata:\n    major_brand     : isom\n    minor_version   : 512\n    compatible_brands: isomiso2avc1mp41\n    encoder         : Lavf62.3.100\n  Stream #0:0(und): Video: av1 (AV01 / 0x31305641), yuv420p(tv, progressive), 1920x1080, q=2-31, 4000 kb/s, 60 fps, 1k tbn (default)\n    Metadata:\n      encoder         : Lavc62.11.100 libsvtav1\n      handler_name    : VideoHandler\n      vendor_id       : [0][0][0][0]\n    Side data:\n      cpb: bitrate max/min/avg: 0/0/4000000 buffer size: 4000000 vbv_delay: N/A\nframe=    0 fps=0.0 q=0.0 size=       0KiB time=N/A bitrate=N/A speed=N/A elapsed=0:00:01.12    \nframe=    0 fps=0.0 q=0.0 size=       0KiB time=N/A bitrate=N/A speed=N/A elapsed=0:00:01.72    \nframe=    0 fps=0.0 q=0.0 size=       0KiB time=N/A bitrate=N/A speed=N/A elapsed=0:00:02.36    \nframe=    0 fps=0.0 q=0.0 size=       0KiB time=N/A bitrate=N/A speed=N/A elapsed=0:00:02.98    \nframe=    0 fps=0.0 q=0.0 size=       0KiB time=N/A bitrate=N/A speed=N/A elapsed=0:00:03.58    \nframe=    0 fps=0.0 q=0.0 size=       0KiB time=N/A bitrate=N/A speed=N/A elapsed=0:00:04.23    \nframe=    0 fps=0.0 q=0.0 size=       0KiB time=N/A bitrate=N/A speed=N/A elapsed=0:00:04.84    \nframe=    0 fps=0.0 q=0.0 size=       0KiB time=N/A bitrate=N/A speed=N/A elapsed=0:00:05.41    \nframe=    1 fps=0.2 q=17.0 size=       1KiB time=00:00:00.00 bitrate=N/A speed=   0x elapsed=0:00:05.95    \nframe=    3 fps=0.5 q=41.0 size=       1KiB time=00:00:00.01 bitrate= 341.8kbits/s speed=0.00258x elapsed=0:00:06.46    \nframe=   10 fps=1.4 q=40.0 size=       1KiB time=00:00:00.13 bitrate=  42.7kbits/s speed=0.0188x elapsed=0:00:07.08    \nframe=   18 fps=2.3 q=34.0 size=       1KiB time=00:00:00.26 bitrate=  21.4kbits/s speed=0.0345x elapsed=0:00:07.72    \nframe=   24 fps=2.9 q=33.0 size=       1KiB time=00:00:00.36 bitrate=  15.5kbits/s speed=0.0441x elapsed=0:00:08.31    \nframe=   29 fps=3.2 q=32.0 size=       1KiB time=00:00:00.45 bitrate=  12.7kbits/s speed=0.0503x elapsed=0:00:08.94    \nframe=   34 fps=3.6 q=28.0 size=       1KiB time=00:00:00.55 bitrate=  10.4kbits/s speed=0.0577x elapsed=0:00:09.53    \nframe=   37 fps=3.7 q=27.0 size=       1KiB time=00:00:00.60 bitrate=   9.5kbits/s speed=0.0593x elapsed=0:00:10.12    \nframe=   42 fps=3.9 q=29.0 size=       1KiB time=00:00:00.65 bitrate=   8.8kbits/s speed=0.061x elapsed=0:00:10.65    \nframe=   47 fps=4.2 q=27.0 size=       1KiB time=00:00:00.76 bitrate=   7.4kbits/s speed=0.0678x elapsed=0:00:11.30    \nframe=   52 fps=4.4 q=31.0 size=       1KiB time=00:00:00.85 bitrate=   6.7kbits/s speed=0.0715x elapsed=0:00:11.88    \nframe=   56 fps=4.5 q=31.0 size=       1KiB time=00:00:00.91 bitrate=   6.2kbits/s speed=0.0736x elapsed=0:00:12.45    \nframe=   59 fps=4.5 q=29.0 size=       1KiB time=00:00:00.96 bitrate=   5.9kbits/s speed=0.0744x elapsed=0:00:13.00    \nframe=   66 fps=4.9 q=30.0 size=       1KiB time=00:00:01.06 bitrate=   5.3kbits/s speed=0.0789x elapsed=0:00:13.51    \nframe=   70 fps=5.0 q=27.0 size=       1KiB time=00:00:01.15 bitrate=   5.0kbits/s speed=0.0818x elapsed=0:00:14.05    \nframe=   75 fps=5.1 q=40.0 size=       1KiB time=00:00:01.20 bitrate=   4.7kbits/s speed=0.0822x elapsed=0:00:14.60    \nframe=   80 fps=5.3 q=30.0 size=       1KiB time=00:00:01.31 bitrate=   4.3kbits/s speed=0.0867x elapsed=0:00:15.18    \nframe=   86 fps=5.5 q=30.0 size=       1KiB time=00:00:01.40 bitrate=   4.1kbits/s speed=0.0887x elapsed=0:00:15.77    \nframe=   88 fps=5.4 q=30.0 size=       1KiB time=00:00:01.45 bitrate=   3.9kbits/s speed=0.0886x elapsed=0:00:16.37    \nframe=   96 fps=5.7 q=29.0 size=       1KiB time=00:00:01.56 bitrate=   3.6kbits/s speed=0.0924x elapsed=0:00:16.95    \nframe=  101 fps=5.8 q=34.0 size=       1KiB time=00:00:01.65 bitrate=   3.5kbits/s speed=0.0942x elapsed=0:00:17.51    \nframe=  106 fps=5.8 q=30.0 size=       1KiB time=00:00:01.71 bitrate=   3.3kbits/s speed=0.0946x elapsed=0:00:18.13    \nframe=  111 fps=5.9 q=27.0 size=       1KiB time=00:00:01.81 bitrate=   3.1kbits/s speed=0.0969x elapsed=0:00:18.74    \nframe=  116 fps=6.0 q=30.0 size=       1KiB time=00:00:01.91 bitrate=   3.0kbits/s speed=0.0994x elapsed=0:00:19.28    \nframe=  119 fps=6.0 q=29.0 size=       1KiB time=00:00:01.96 bitrate=   2.9kbits/s speed=0.0992x elapsed=0:00:19.81    \nframe=  123 fps=6.0 q=27.0 size=       1KiB time=00:00:02.03 bitrate=   2.8kbits/s speed=0.0997x elapsed=0:00:20.38    \nframe=  127 fps=6.1 q=27.0 size=       1KiB time=00:00:02.10 bitrate=   2.7kbits/s speed= 0.1x elapsed=0:00:20.95    \nframe=  133 fps=6.2 q=38.0 size=       1KiB time=00:00:02.18 bitrate=   2.6kbits/s speed=0.101x elapsed=0:00:21.55    \nframe=  134 fps=6.1 q=26.0 size=       1KiB time=00:00:02.21 bitrate=   2.6kbits/s speed= 0.1x elapsed=0:00:22.14    \nframe=  139 fps=6.1 q=32.0 size=       1KiB time=00:00:02.28 bitrate=   2.5kbits/s speed=0.101x elapsed=0:00:22.69    \nframe=  142 fps=6.1 q=28.0 size=       1KiB time=00:00:02.35 bitrate=   2.4kbits/s speed=0.101x elapsed=0:00:23.35    \nframe=  146 fps=6.1 q=32.0 size=       1KiB time=00:00:02.40 bitrate=   2.4kbits/s speed=0.0998x elapsed=0:00:24.04    \nframe=  150 fps=6.1 q=32.0 size=       1KiB time=00:00:02.48 bitrate=   2.3kbits/s speed=0.101x elapsed=0:00:24.69    \nframe=  152 fps=6.0 q=32.0 size=       1KiB time=00:00:02.51 bitrate=   2.3kbits/s speed=0.0995x elapsed=0:00:25.28    \nframe=  156 fps=6.0 q=29.0 size=       1KiB time=00:00:02.58 bitrate=   2.2kbits/s speed=0.0996x elapsed=0:00:25.92    \nframe=  162 fps=6.1 q=32.0 size=       1KiB time=00:00:02.68 bitrate=   2.1kbits/s speed=0.101x elapsed=0:00:26.57    \nframe=  166 fps=6.1 q=32.0 size=       1KiB time=00:00:02.75 bitrate=   2.1kbits/s speed=0.101x elapsed=0:00:27.16    \nframe=  168 fps=6.1 q=32.0 size=       1KiB time=00:00:02.76 bitrate=   2.1kbits/s speed=0.0999x elapsed=0:00:27.70    \nframe=  171 fps=6.0 q=29.0 size=       1KiB time=00:00:02.83 bitrate=   2.0kbits/s speed= 0.1x elapsed=0:00:28.32    \nframe=  174 fps=6.0 q=28.0 size=       1KiB time=00:00:02.88 bitrate=   2.0kbits/s speed=0.0997x elapsed=0:00:28.90    \nframe=  179 fps=6.1 q=29.0 size=       1KiB time=00:00:02.96 bitrate=   1.9kbits/s speed=0.101x elapsed=0:00:29.41    \nframe=  182 fps=6.1 q=28.0 size=       1KiB time=00:00:03.01 bitrate=   1.9kbits/s speed=0.101x elapsed=0:00:29.98    \nframe=  186 fps=6.1 q=31.0 size=       1KiB time=00:00:03.08 bitrate=   1.8kbits/s speed=0.101x elapsed=0:00:30.50    \nframe=  192 fps=6.2 q=30.0 size=       1KiB time=00:00:03.18 bitrate=   1.8kbits/s speed=0.103x elapsed=0:00:31.02    \nframe=  198 fps=6.3 q=30.0 size=       1KiB time=00:00:03.26 bitrate=   1.7kbits/s speed=0.103x elapsed=0:00:31.56    \nframe=  202 fps=6.3 q=30.0 size=       1KiB time=00:00:03.35 bitrate=   1.7kbits/s speed=0.104x elapsed=0:00:32.08    \nframe=  207 fps=6.3 q=27.0 size=       1KiB time=00:00:03.43 bitrate=   1.7kbits/s speed=0.105x elapsed=0:00:32.62    \nframe=  213 fps=6.4 q=29.0 size=       1KiB time=00:00:03.53 bitrate=   1.6kbits/s speed=0.106x elapsed=0:00:33.21    \nframe=  217 fps=6.4 q=25.0 size=       1KiB time=00:00:03.60 bitrate=   1.6kbits/s speed=0.107x elapsed=0:00:33.76    \nframe=  219 fps=6.4 q=29.0 size=       1KiB time=00:00:03.63 bitrate=   1.6kbits/s speed=0.106x elapsed=0:00:34.29    \nframe=  223 fps=6.4 q=27.0 size=       1KiB time=00:00:03.70 bitrate=   1.5kbits/s speed=0.106x elapsed=0:00:34.83    \nframe=  231 fps=6.5 q=24.0 size=       1KiB time=00:00:03.83 bitrate=   1.5kbits/s speed=0.108x elapsed=0:00:35.39    \nframe=  233 fps=6.5 q=24.0 size=       1KiB time=00:00:03.86 bitrate=   1.5kbits/s speed=0.107x elapsed=0:00:35.97    \nframe=  241 fps=6.6 q=17.0 size=       1KiB time=00:00:04.00 bitrate=   1.4kbits/s speed=0.109x elapsed=0:00:36.53    \nframe=  245 fps=6.6 q=27.0 size=       1KiB time=00:00:04.06 bitrate=   1.4kbits/s speed=0.11x elapsed=0:00:37.07    \nframe=  249 fps=6.6 q=24.0 size=       1KiB time=00:00:04.13 bitrate=   1.4kbits/s speed=0.11x elapsed=0:00:37.60    \nframe=  255 fps=6.7 q=27.0 size=       1KiB time=00:00:04.23 bitrate=   1.3kbits/s speed=0.111x elapsed=0:00:38.16    \nframe=  261 fps=6.7 q=27.0 size=       1KiB time=00:00:04.33 bitrate=   1.3kbits/s speed=0.112x elapsed=0:00:38.76    \nframe=  265 fps=6.7 q=24.0 size=       1KiB time=00:00:04.40 bitrate=   1.3kbits/s speed=0.112x elapsed=0:00:39.29    \nframe=  267 fps=6.7 q=30.0 size=       1KiB time=00:00:04.43 bitrate=   1.3kbits/s speed=0.111x elapsed=0:00:39.83    \nframe=  273 fps=6.8 q=17.0 size=       1KiB time=00:00:04.53 bitrate=   1.3kbits/s speed=0.112x elapsed=0:00:40.36    \nframe=  281 fps=6.9 q=33.0 size=       1KiB time=00:00:04.66 bitrate=   1.2kbits/s speed=0.114x elapsed=0:00:40.88    \nframe=  285 fps=6.9 q=33.0 size=       1KiB time=00:00:04.73 bitrate=   1.2kbits/s speed=0.114x elapsed=0:00:41.45    \n[out#0/matroska @ 000001cb7b5a9000] video:1840KiB audio:0KiB subtitle:0KiB other streams:0KiB global headers:0KiB muxing overhead: 0.113157%\nframe=  300 fps=7.2 q=32.0 Lsize=    1842KiB time=00:00:04.98 bitrate=3028.1kbits/s speed=0.119x elapsed=0:00:41.82    \n",
  "seconds": 42.53105878829956,
  "probe_out": {}
}